<?xml version="1.0" standalone="no"?>
<!DOCTYPE svg PUBLIC "-//W3C//DTD SVG 20010904//EN"
 "http://www.w3.org/TR/2001/REC-SVG-20010904/DTD/svg10.dtd">
<svg version="1.0" xmlns="http://www.w3.org/2000/svg"
 width="330.000000pt" height="150.000000pt" viewBox="0 0 330.000000 150.000000"
 preserveAspectRatio="xMidYMid meet">

<g transform="translate(0.000000,150.000000) scale(0.100000,-0.100000)"
fill="#000000" stroke="none">
<path d="M555 1227 c-56 -22 -74 -37 -100 -82 -44 -75 -34 -177 24 -229 12
-11 21 -23 21 -27 0 -5 -18 -34 -40 -65 -22 -32 -40 -67 -40 -79 0 -14 -8 -25
-20 -28 -18 -5 -20 -14 -20 -100 0 -87 2 -96 20 -102 18 -6 20 -15 20 -78 0
-40 4 -78 8 -85 7 -9 87 -12 368 -10 l359 3 3 53 c2 28 5 52 8 52 2 0 26 -15
53 -33 34 -22 51 -41 55 -60 6 -27 7 -28 68 -25 l63 3 3 256 2 257 -45 56 -46
56 -60 0 c-52 0 -59 -2 -59 -20 0 -12 -17 -32 -42 -50 -48 -35 -54 -36 -68
-10 -8 16 -5 28 16 60 66 99 27 232 -81 281 -70 32 -143 19 -204 -37 l-38 -34
-37 35 c-54 51 -127 67 -191 42z m115 -53 l41 -17 -27 -28 c-21 -22 -31 -26
-45 -18 -10 5 -29 7 -42 4 -16 -4 -29 1 -46 19 l-24 26 34 14 c44 20 60 19
109 0z m337 0 l34 -17 -27 -28 c-20 -20 -31 -26 -43 -19 -9 4 -27 6 -41 3 -18
-3 -32 3 -49 21 l-24 26 34 14 c45 20 73 20 116 0z m-454 -127 c3 -32 -1 -47
-16 -64 -26 -29 -31 -29 -45 2 -15 33 -15 87 0 120 l11 25 23 -21 c14 -13 24
-36 27 -62z m331 -6 c2 -31 -3 -46 -19 -61 -19 -18 -24 -19 -34 -6 -19 23 -25
92 -11 127 l13 30 25 -24 c17 -17 25 -37 26 -66z m-135 48 c15 -42 14 -55 -5
-95 l-17 -35 -23 22 c-30 28 -30 84 -1 117 27 29 33 28 46 -9z m330 0 c15 -43
14 -64 -5 -101 l-16 -30 -23 22 c-28 27 -29 88 0 119 25 28 31 26 44 -10z
m-434 -29 c7 -23 -10 -50 -30 -50 -20 0 -37 27 -30 50 4 13 15 20 30 20 15 0
26 -7 30 -20z m333 -12 c2 -20 -2 -28 -19 -33 -30 -10 -53 19 -38 47 15 29 53
20 57 -14z m-300 -91 l22 -24 -25 -11 c-32 -15 -75 -15 -111 -2 l-27 11 23 24
c32 34 88 34 118 2z m330 0 l22 -24 -25 -11 c-14 -7 -39 -12 -55 -12 -16 0
-41 5 -55 12 l-25 11 22 24 c15 16 33 23 58 23 25 0 43 -7 58 -23z m-147 -77
c21 -11 49 -20 63 -20 14 0 28 -4 31 -10 4 -7 -50 -10 -154 -10 -89 0 -161 4
-161 8 0 5 17 14 39 20 21 7 53 27 71 46 l34 34 19 -24 c10 -14 36 -33 58 -44z
m454 4 c9 -14 14 -28 11 -32 -7 -6 -56 37 -56 50 0 18 29 6 45 -18z m-47 -34
l23 -29 -60 -40 c-33 -23 -62 -41 -65 -41 -4 0 -6 10 -6 23 0 13 -6 29 -12 36
-11 10 -10 14 2 21 8 5 31 20 50 34 19 14 37 25 40 25 3 0 15 -13 28 -29z
m-681 -14 c-2 -21 -1 -21 208 -21 l210 0 0 25 c0 38 27 34 58 -9 15 -22 27
-43 27 -48 0 -4 -133 -7 -295 -5 -162 1 -295 5 -295 8 0 3 12 23 27 43 30 42
64 46 60 7z m773 -236 c0 -213 -1 -220 -20 -220 -19 0 -20 7 -20 220 0 213 1
220 20 220 19 0 20 -7 20 -220z m-70 5 l0 -175 -65 42 -65 43 0 90 0 90 63 42
c34 23 63 42 65 42 1 1 2 -78 2 -174z m-186 104 c3 -17 6 -96 6 -175 l0 -144
-315 0 -315 0 0 70 0 70 193 2 192 3 0 85 0 85 -192 3 c-162 2 -193 5 -193 17
0 13 43 15 309 15 l309 0 6 -31z m-264 -89 l0 -50 -205 0 -205 0 0 50 0 50
205 0 205 0 0 -50z"/>
<path d="M1650 785 l0 -155 25 0 c25 0 25 1 25 90 0 50 3 90 8 90 4 0 26 -40
49 -90 37 -80 44 -90 68 -90 23 0 31 10 70 93 l44 92 1 -92 c0 -92 0 -93 25
-93 l25 0 0 155 0 155 -25 0 c-22 0 -32 -14 -82 -121 l-58 -121 -60 121 c-55
111 -62 121 -87 121 l-28 0 0 -155z"/>
<path d="M2112 838 c-22 -56 -49 -127 -61 -155 l-21 -53 29 0 c21 0 32 6 36
20 5 17 15 20 60 20 45 0 55 -3 60 -20 4 -14 15 -20 36 -20 l29 0 -24 63 c-13
34 -39 100 -56 147 -18 47 -36 89 -40 93 -4 5 -26 -38 -48 -95z m72 -105 c7
-21 4 -23 -28 -23 -20 0 -36 1 -36 3 0 2 8 26 17 53 l17 49 12 -30 c6 -17 15
-40 18 -52z"/>
<path d="M2320 914 c0 -14 11 -42 25 -62 l25 -37 -25 -3 c-25 -3 -25 -5 -25
-93 0 -88 0 -89 25 -89 24 0 25 2 25 65 0 88 21 88 75 0 33 -55 44 -65 67 -65
15 0 28 2 28 5 0 2 -16 29 -35 59 -19 30 -35 57 -35 60 0 2 14 18 30 34 40 41
40 83 1 123 -27 27 -35 29 -105 29 -75 0 -76 0 -76 -26z m141 -34 c10 -6 19
-19 19 -30 0 -16 -26 -40 -44 -40 -5 0 -46 65 -46 74 0 10 50 7 71 -4z"/>
<path d="M2570 934 c0 -3 25 -40 55 -82 55 -76 55 -77 55 -149 0 -71 1 -73 25
-73 24 0 25 2 25 73 0 72 0 73 55 149 30 42 55 79 55 82 0 3 -13 6 -29 6 -23
0 -35 -10 -66 -55 -21 -30 -39 -55 -40 -55 -1 0 -19 25 -40 55 -31 45 -43 55
-66 55 -16 0 -29 -3 -29 -6z"/>
</g>
</svg>
